<?xml version="1.0" encoding="UTF-8" standalone="no"?>
<!-- Created with Vectornator (http://vectornator.io/) -->

<svg
   height="100%"
   stroke-miterlimit="10"
   style="fill-rule:nonzero;clip-rule:evenodd;stroke-linecap:round;stroke-linejoin:round;"
   version="1.1"
   viewBox="0 0 1024 1024"
   width="100%"
   xml:space="preserve"
   id="svg6"
   sodipodi:docname="logo.svg"
   inkscape:export-filename="logo.png"
   inkscape:export-xdpi="96"
   inkscape:export-ydpi="96"
   inkscape:version="1.3.2 (091e20e, 2023-11-25)"
   xmlns:inkscape="http://www.inkscape.org/namespaces/inkscape"
   xmlns:sodipodi="http://sodipodi.sourceforge.net/DTD/sodipodi-0.dtd"
   xmlns="http://www.w3.org/2000/svg"
   xmlns:svg="http://www.w3.org/2000/svg"><sodipodi:namedview
   id="namedview6"
   pagecolor="#ffffff"
   bordercolor="#000000"
   borderopacity="0.25"
   inkscape:showpageshadow="2"
   inkscape:pageopacity="0.0"
   inkscape:pagecheckerboard="0"
   inkscape:deskcolor="#d1d1d1"
   inkscape:zoom="0.23046875"
   inkscape:cx="433.89831"
   inkscape:cy="509.83051"
   inkscape:window-width="1480"
   inkscape:window-height="786"
   inkscape:window-x="0"
   inkscape:window-y="38"
   inkscape:window-maximized="0"
   inkscape:current-layer="svg6"
   inkscape:export-bgcolor="#ffffffff" />
<defs
   id="defs1">








</defs>
<g
   id="g7"><path
     d="m 298.394,381.397 h 57.876 c -1.777,15.738 -6.093,29.699 -12.946,41.884 -6.854,12.184 -15.548,22.401 -26.082,30.651 -10.535,8.249 -22.465,14.532 -35.792,18.847 -13.326,4.316 -27.478,6.473 -42.454,6.473 -20.815,0 -39.536,-3.681 -56.162,-11.042 -16.627,-7.361 -30.651,-17.515 -42.074,-30.461 -11.423,-12.945 -20.18,-28.112 -26.272,-45.5 -6.093,-17.388 -9.139,-36.236 -9.139,-56.543 0,-19.799 3.046,-38.266 9.139,-55.4 6.092,-17.135 14.849,-32.048 26.272,-44.74 11.423,-12.692 25.447,-22.655 42.074,-29.889 16.626,-7.235 35.347,-10.852 56.162,-10.852 16.753,0 32.11,2.539 46.072,7.615 13.961,5.077 26.145,12.438 36.553,22.084 10.407,9.646 18.784,21.323 25.13,35.03 6.346,13.708 10.28,29.065 11.803,46.072 h -57.875 c -2.285,-18.276 -8.567,-32.999 -18.848,-44.168 -10.28,-11.169 -24.559,-16.753 -42.835,-16.753 -13.454,0 -24.876,2.601 -34.269,7.805 -9.392,5.204 -17.007,12.121 -22.845,20.752 -5.838,8.63 -10.09,18.339 -12.755,29.128 -2.666,10.788 -3.998,21.893 -3.998,33.316 0,11.93 1.332,23.48 3.998,34.649 2.665,11.169 6.917,21.132 12.755,29.89 5.838,8.757 13.453,15.738 22.845,20.941 9.393,5.204 20.815,7.806 34.269,7.806 7.361,0 14.405,-1.206 21.132,-3.617 6.727,-2.412 12.755,-5.775 18.086,-10.09 5.331,-4.316 9.773,-9.329 13.327,-15.04 3.553,-5.712 5.838,-11.994 6.853,-18.848 z"
     fill="#0b0b0b"
     fill-rule="nonzero"
     opacity="1"
     stroke="none"
     id="path1" /><path
     d="M 117.1525,822.702 V 550.84 h 55.972 v 182.003 h 0.761 L 286.9715,550.84 h 59.779 v 271.862 h -55.972 V 640.318 h -0.761 l -113.467,182.384 z"
     fill="#c41230"
     fill-rule="nonzero"
     opacity="1"
     stroke="none"
     id="path4" /></g><g
   id="g6"
   transform="translate(-14.469)"><path
     d="M 405.0065,472.779 V 200.917 h 59.779 v 117.274 h 110.04 V 200.917 h 59.779 v 271.862 h -59.779 V 368.451 h -110.04 v 104.328 z"
     fill="#0b0b0b"
     fill-rule="nonzero"
     opacity="1"
     stroke="none"
     id="path2" /><path
     d="m 601.859,581.681 6.092,-30.841 h 38.076 V 697.813 H 531.799 v -44.549 h 60.16 c -1.776,-19.038 -8.059,-33.57 -18.847,-43.597 -10.788,-10.026 -26.082,-15.04 -45.882,-15.04 -13.453,0 -24.876,2.602 -34.268,7.806 -9.392,5.204 -17.007,12.121 -22.845,20.751 -5.839,8.631 -10.091,18.34 -12.756,29.128 -2.665,10.788 -3.998,21.894 -3.998,33.317 0,11.93 1.333,23.48 3.998,34.649 2.665,11.169 6.917,21.132 12.756,29.889 5.838,8.758 13.453,15.738 22.845,20.942 9.392,5.204 20.815,7.806 34.268,7.806 14.469,0 26.78,-3.808 36.934,-11.423 10.154,-7.615 17.007,-19.038 20.561,-34.268 h 57.114 c -1.523,15.484 -5.712,29.191 -12.565,41.122 -6.854,11.93 -15.548,21.957 -26.082,30.079 -10.535,8.123 -22.338,14.279 -35.411,18.467 -13.073,4.189 -26.589,6.283 -40.551,6.283 -20.814,0 -39.535,-3.681 -56.162,-11.042 -16.626,-7.362 -30.651,-17.515 -42.073,-30.461 -11.423,-12.946 -20.181,-28.113 -26.273,-45.501 -6.092,-17.388 -9.138,-36.235 -9.138,-56.542 0,-19.8 3.046,-38.267 9.138,-55.401 6.092,-17.134 14.85,-32.047 26.273,-44.739 11.422,-12.692 25.447,-22.655 42.073,-29.89 16.627,-7.234 35.348,-10.851 56.162,-10.851 13.2,0 26.273,2.729 39.219,8.186 12.945,5.458 24.749,15.04 35.41,28.747 z"
     fill="#c41230"
     fill-rule="nonzero"
     opacity="1"
     stroke="none"
     id="path5" /></g><g
   id="g8"><path
     d="m 749.974,306.007 35.411,99.759 h 0.761 l 34.269,-99.759 z m 5.712,166.772 -102.805,-271.862 h 60.16 l 21.322,60.541 h 101.663 l 20.561,-60.541 h 62.064 L 816.988,472.779 Z"
     fill="#c41230"
     fill-rule="nonzero"
     opacity="0.944335"
     stroke="none"
     id="path3" /><path
     d="M 682.5805,822.702 V 550.84 h 206.371 v 50.26 h -146.592 v 66.633 h 131.742 v 46.453 h -131.742 v 58.256 h 143.546 v 50.26 z"
     fill="#0b0b0b"
     fill-rule="nonzero"
     opacity="1"
     stroke="none"
     id="path6" /></g>
</svg>
